<svg id="Layer_1" data-name="Layer 1" xmlns="http://www.w3.org/2000/svg" viewBox="0 0 92.79 92.79"><defs><style>.cls-1{fill:#fbb040;}.cls-2{fill:#f15a29;}.cls-3{fill:#f47d29;}.cls-4{fill:#f7941e;}.cls-5{fill:#fff;}</style></defs><title>Untitled-1</title><path class="cls-1" d="M84.53,0H84.4V0.09L84.53,0"/><path class="cls-2" d="M18.79,47.73a46.28,46.28,0,0,0,15.3,29c6-39.56,25.66-64.11,32.83-71.92A46.19,46.19,0,0,0,46.39,0c-0.49,0-1,0-1.46,0l-0.12.06c7.06,27.14-10.6,40.93-26,47.63"/><path class="cls-3" d="M42.76,68.46s10.45-35.51,49.63-28A46.42,46.42,0,0,0,66.93,4.79C59.75,12.61,40.1,37.15,34.09,76.71Z"/><path class="cls-4" d="M18.42,42A46.39,46.39,0,0,1,44.81.09V0A46.4,46.4,0,0,0,.51,53.3c3.08-.56,11.29-1.5,19.19-4.94-0.23-1.89-1.28-4.45-1.28-6.4"/><path class="cls-3" d="M44.81,0.09a46.29,46.29,0,0,0-26,47.63C34.2,41,51.87,27.23,44.81.09"/><path class="cls-1" d="M18.91,48.62C11,52.05,3.59,52.74.51,53.3A46.45,46.45,0,0,0,32.62,90.71c0.25-4.23.68-8.3,1.23-12.24,0.08-.59.16-1.18,0.25-1.75A46.82,46.82,0,0,1,18.91,48.62"/><path class="cls-4" d="M64.82,88.36a46.16,46.16,0,0,1-27.18-8.81c-1.23-.89-2.41-1.83-3.54-2.83-0.09.58-.16,1.17-0.25,1.75-0.55,3.94-1,8-1.23,12.24a46.53,46.53,0,0,0,33.66-2.39c-0.49,0-1,0-1.46,0"/><path class="cls-1" d="M92.39,40.41c-39.18-7.46-49.63,28-49.63,28L34.1,76.71c1.13,1,2.32,1.94,3.54,2.83a46.16,46.16,0,0,0,27.18,8.81c0.49,0,1,0,1.46,0,0.27-.13.52-0.27,0.78-0.41a46.19,46.19,0,0,0,25.32-47.5"/><path class="cls-5" d="M61.54,74.58c-1,0-1.22-.31-1.22-1.3,0-4.12,8-18.31,14.27-25.18-2.29-2.9-5.65-4.81-8.32-4.81-4.07,0-8.44,2.41-16.42,11.91a43.6,43.6,0,0,0-7.16,13.71c0.55-5.18,3.61-13.19,3.61-13.19h0a103.78,103.78,0,0,1,6.31-14.51c3.59-7,9.92-15.34,17.55-23.12-1.75-1.91-6.41-3.66-9.61-3.66A107.82,107.82,0,0,0,43.81,41.69C41,45.75,37,50.4,32.2,51.24c-3.16.55-4.49-3.15-5-6-0.13-.75-0.18-1.51-0.29-2.18C40.06,35,46.35,28.29,44.8,14.52c-2.74-2.44-5.43-3.6-8-3.49C26.49,12.83,17.31,29.11,18.28,42.38c2.38-.93,6-3.74,9.09-5.23C28.55,27,33.85,20.08,39.54,18.26c0.83,7-3.67,14.34-10.66,20.09l-1,.65-0.77.47c-3.17,1.9-6.43,3.67-8.58,4.81-1.52.8-2.49,1.3-2.49,1.3a8.64,8.64,0,0,0,.29,1.35c0.3,1,.87,2.09,1.89,1.93a1.31,1.31,0,0,0,.73-0.24c2.44,5.29,8.69,9.33,14,6.78a23.67,23.67,0,0,0,7.89-5.92c-3.67,10.46-6.72,21-6.72,27.24,0.62,0.68,4.44,3.46,4.44,3.46,0.83-1.95,1.9-4.24,2.93-6.25,5.45-10.31,11.7-17.06,17.1-21.09a12.24,12.24,0,0,1,3-1.83,0.6,0.6,0,0,1,.31.31c-5,10-8.62,19.61-8.62,22.58,0,2.36,2.06,4.81,4.12,4.81,1.6,0,7.4-2.75,7.4-3.51A2.53,2.53,0,0,0,64.21,74a7.68,7.68,0,0,1-2.67.61"/></svg>